<svg id="Layer_1" data-name="Layer 1" xmlns="http://www.w3.org/2000/svg" width="10.02in" height="5.01in" viewBox="0 0 721.45 360.69">
  <defs>
    <style>
      .cls-1 {
        fill: #fff;
      }

      .cls-2 {
        fill: #4285f4;
      }

      .cls-3 {
        fill: #185abc;
      }

      .cls-4 {
        fill: #0d79f3;
      }

      .cls-5 {
        fill: #eaecef;
      }

      .cls-6 {
        fill: #e9ebed;
      }
    </style>
  </defs>
  <g>
    <path class="cls-1" d="M395.9,144.51a33.58,33.58,0,0,1,37.79,25.1c1.53,8.36,1,17.52-3.71,24.84-7.27,12.55-23.26,19.5-37.32,15.47a33.38,33.38,0,0,1-20.59-49.35A33.51,33.51,0,0,1,395.9,144.51Z" transform="translate(-39.84 -55.53)"/>
    <path class="cls-1" d="M657.33,157.86a26.47,26.47,0,0,1,28.6-.3c6.38,4.14,11.29,10.89,12.31,18.52.69,5.32.45,10.7.42,16.06,4.32.39,9.5-.52,12.91,2.79,3,2.8,2.79,7.26,2.86,11-.19,17,0,34.07-.08,51.1a12.32,12.32,0,0,1-7.79,11.79q-34.57-.35-69.17,0a12.23,12.23,0,0,1-7.73-8.95,41.28,41.28,0,0,1-.57-7.93c.11-15.33.08-30.67,0-46,.08-3.87.09-8.42,3.3-11.15,3.47-3.09,8.48-2.35,12.77-2.79-.11-5.65-.43-11.35.53-17A26.75,26.75,0,0,1,657.33,157.86Zm2.06,12c-5.56,6-4,14.88-4.1,22.37,11,.21,22,.3,33-.05-.44-7.39,1.86-16.19-3.78-22.17C678.35,162.61,665.58,162.5,659.39,169.9Zm8.79,45.91a11.27,11.27,0,0,0-7.33,12.05c.14,4.1,3.89,6.52,5.79,9.79.91,3.43.47,7,.62,10.57,3,0,6,0,9-.08.38-4.75-.61-10.39,3.45-13.88a11.27,11.27,0,0,0,.15-15.72C677,215.38,672.19,214.69,668.18,215.81Z" transform="translate(-39.84 -55.53)"/>
    <path class="cls-1" d="M135,165c8.15-9.39,24.15-10.3,33.08-1.54,8.89,7.66,9.86,22.52,2.23,31.36a23,23,0,0,1-19.82,8.48c-6.75-.26-12.74-4.29-17-9.26-2.95-5.09-5.08-11.05-4.06-17A25.55,25.55,0,0,1,135,165Z" transform="translate(-39.84 -55.53)"/>
    <path class="cls-1" d="M83.73,245.15c.57-10.52,9.27-20,19.78-21.21,8.23-1.26,16.73,2.6,21.81,9.05,3,4.71,4.89,10.32,4.27,15.95a26.81,26.81,0,0,1-5.26,13c-7.06,7.88-19.57,10.53-28.85,5.1A23.23,23.23,0,0,1,83.73,245.15Z" transform="translate(-39.84 -55.53)"/>
    <path class="cls-1" d="M356.83,235.36c26.59-11.65,57.82-12.05,84.83-1.53,10,4,20.32,10.29,24,21,.32,3.23.49,6.91-2.1,9.32-14.42,16.13-35.32,26.55-57,27.72-25.66,2-51.73-8.94-68.63-28.26a8.35,8.35,0,0,1-1.64-7.74C338.7,245.77,348,239.45,356.83,235.36Z" transform="translate(-39.84 -55.53)"/>
  </g>
  <g>
    <path class="cls-2" d="M388.28,58.71c5.3-1.42,10.72-4.3,16.32-2.72,5.14,1.37,10.16,3.19,15.32,4.52,26.08,7.09,51.91,15,78,22.14,10.22,2.73,20.27,6.06,30.52,8.72.65,9.87.21,19.75.33,29.63q0,29,0,58a220.06,220.06,0,0,1-8.36,64c-8.65,28.28-22,55.28-40.45,78.45a215.77,215.77,0,0,1-70.12,57.91c-3.77,1.78-8.07,5.06-12.3,2.64-37.69-17.85-69.57-47.3-91.15-82.91-16.17-26.51-27.2-56.24-31.23-87.07-1.25-12.3-2.3-24.65-2.06-37,.05-27.72-.07-55.45.06-83.17,21.32-6.91,43.09-12.32,64.57-18.71C354.5,68.06,371.44,63.57,388.28,58.71ZM373.56,129c-32.83,10.49-56.77,43.6-56.4,78.07a81.08,81.08,0,0,0,18,53.06c.37-1.42.75-2.83,1.14-4.24a8.35,8.35,0,0,0,1.64,7.74c16.9,19.32,43,30.23,68.63,28.26,21.67-1.17,42.57-11.59,57-27.72,2.59-2.41,2.42-6.09,2.1-9.32a50.05,50.05,0,0,1,1.41,5.28,86.17,86.17,0,0,0,17.81-45.83A84.07,84.07,0,0,0,373.56,129Z" transform="translate(-39.84 -55.53)"/>
    <path class="cls-2" d="M125.27,105c5.38-1.68,10.74.71,15.83,2.24,19.83,6,39.91,11,59.69,17.16,5.75,1.85,11.81,2.7,17.37,5.13A18.79,18.79,0,0,1,219,136c-.2,20-.05,40-.09,60-.73,56.57-34.87,111.82-86,136.42a6.36,6.36,0,0,1-6,.33c-26-12.27-48-32.58-63-57C55,261.93,49,246.57,44.63,230.88c-3.55-12.63-4.37-25.81-4.78-38.86,0-20.87,0-41.74,0-62.61C54.53,125.72,68.9,121,83.5,117,97.45,113.12,111.4,109.18,125.27,105ZM135,165c-8.46-1.16-17-.55-25.5-.68-5.65,0-12.1,1.14-15.52,6.12a16.22,16.22,0,0,0,1.76,21.38c3.77,4,9.61,4.39,14.78,4.31,8-.16,16,.22,23.93-.49-.25-.4-.75-1.2-1-1.6,4.29,5,10.28,9,17,9.26a23,23,0,0,0,19.82-8.48c7.63-8.84,6.66-23.7-2.23-31.36C159.13,154.68,143.13,155.59,135,165ZM83.73,245.15a23.23,23.23,0,0,0,11.75,21.9c9.28,5.43,21.79,2.78,28.85-5.1l-.49.68c7.87.73,15.77.37,23.66.51,4.8,0,10.06,0,14.09-3a15.77,15.77,0,0,0,4.73-19.9,15.38,15.38,0,0,0-13.77-8.36,275.18,275.18,0,0,0-27.7.37l.47.73c-5.08-6.45-13.58-10.31-21.81-9.05C93,225.15,84.3,234.63,83.73,245.15Z" transform="translate(-39.84 -55.53)"/>
    <path class="cls-2" d="M660.72,107.07c4.58-1.3,9.31-3.49,14.17-2.3,28.73,8.31,57.55,16.39,86.32,24.63q.16,30.79,0,61.59c1.19,56.6-31.29,112.93-81.65,139.17-2.58,1.3-5.2,2.78-8.1,3.14-4.3-.83-8-3.42-11.73-5.48-30.17-16.91-53.26-45.05-66.15-76.94-6.13-15.92-10.85-32.7-10.85-49.88-1-13.65-.5-27.33-.62-41,.12-10.21-.3-20.43.3-30.63,11.61-2.94,23-6.65,34.53-9.84C631.53,115.39,646.18,111.4,660.72,107.07Zm-3.39,50.79a26.75,26.75,0,0,0-11.64,17.24c-1,5.6-.64,11.3-.53,17-4.29.44-9.3-.3-12.77,2.79-3.21,2.73-3.22,7.28-3.3,11.15.08,15.33.11,30.67,0,46a41.28,41.28,0,0,0,.57,7.93,12.23,12.23,0,0,0,7.73,8.95,38.38,38.38,0,0,0,13.11,1.2c16-.07,32-.17,48,.1,2.74.06,5.37-.8,8-1.31a12.32,12.32,0,0,0,7.79-11.79c.1-17-.11-34.07.08-51.1-.07-3.78.18-8.24-2.86-11-3.41-3.31-8.59-2.4-12.91-2.79,0-5.36.27-10.74-.42-16.06-1-7.63-5.93-14.38-12.31-18.52A26.47,26.47,0,0,0,657.33,157.86Z" transform="translate(-39.84 -55.53)"/>
    <path class="cls-2" d="M659.39,169.9c6.19-7.4,19-7.29,25.08.15,5.64,6,3.34,14.78,3.78,22.17-11,.35-22,.26-33,.05C655.34,184.78,653.83,175.94,659.39,169.9Z" transform="translate(-39.84 -55.53)"/>
  </g>
  <g>
    <path class="cls-3" d="M373.56,129a84.2,84.2,0,0,1,111.34,85.3,86.17,86.17,0,0,1-17.81,45.83,50.05,50.05,0,0,0-1.41-5.28c-3.7-10.68-14-17-24-21-27-10.52-58.24-10.12-84.83,1.53-8.84,4.09-18.13,10.41-20.51,20.48-.39,1.41-.77,2.82-1.14,4.24a81.08,81.08,0,0,1-18-53.06C316.79,172.55,340.73,139.44,373.56,129Zm22.34,15.56a33.41,33.41,0,0,0-24.2,49.38,33.9,33.9,0,0,0,21,16c14.06,4,30-2.92,37.32-15.47,4.69-7.32,5.24-16.48,3.71-24.84a33.58,33.58,0,0,0-37.79-25.1Z" transform="translate(-39.84 -55.53)"/>
    <path class="cls-3" d="M94,170.42c3.42-5,9.87-6.13,15.52-6.12,8.5.13,17-.48,25.5.68a25.55,25.55,0,0,0-5.6,12c-1,5.95,1.11,11.91,4.06,17,.24.4.74,1.2,1,1.6-8,.71-16,.33-23.93.49-5.17.08-11-.28-14.78-4.31A16.22,16.22,0,0,1,94,170.42Z" transform="translate(-39.84 -55.53)"/>
    <path class="cls-3" d="M668.18,215.81c4-1.12,8.79-.43,11.73,2.73a11.27,11.27,0,0,1-.15,15.72c-4.06,3.49-3.07,9.13-3.45,13.88-3,.08-6,.1-9,.08-.15-3.52.29-7.14-.62-10.57-1.9-3.27-5.65-5.69-5.79-9.79A11.27,11.27,0,0,1,668.18,215.81Z" transform="translate(-39.84 -55.53)"/>
    <path class="cls-3" d="M124.85,232.26a275.18,275.18,0,0,1,27.7-.37,15.38,15.38,0,0,1,13.77,8.36,15.77,15.77,0,0,1-4.73,19.9c-4,3-9.29,3-14.09,3-7.89-.14-15.79.22-23.66-.51l.49-.68a26.81,26.81,0,0,0,5.26-13c.62-5.63-1.28-11.24-4.27-15.95Z" transform="translate(-39.84 -55.53)"/>
  </g>
  <path class="cls-4" d="M637.39,268.87q34.58-.39,69.17,0c-2.67.51-5.3,1.37-8,1.31-16-.27-32-.17-48-.1A38.38,38.38,0,0,1,637.39,268.87Z" transform="translate(-39.84 -55.53)"/>
  <g>
    <path class="cls-5" d="M59,353.15c7.9-3.18,16.51-2.14,24.79-2.95,9.23-.83,18.5-.24,27.75-.43,17.66-.26,35.32.15,53,0,8,.14,16,1.1,24,1.09,4-.11,7.75,1.15,11.42,2.54-9,2.37-18.39,1.68-27.58,2.5-18.29,1.05-36.62.12-54.93.46-11.46,0-23,.27-34.39-.63C75,355,66.74,355.82,59,353.15Z" transform="translate(-39.84 -55.53)"/>
    <path class="cls-5" d="M601.68,353c7.7-3,16-2,24.07-2.77,8.9-.81,17.83-.28,26.75-.42q19-.19,38,0c8.91.15,17.85-.39,26.75.42,8,.78,16.37-.18,24.08,2.77-7.82,2.92-16.23,2.08-24.38,2.72-13.79,1.1-27.64.47-41.45.57-17.69-.18-35.4.65-53.06-.73C615.47,355.24,608.33,355.43,601.68,353Z" transform="translate(-39.84 -55.53)"/>
  </g>
  <path class="cls-6" d="M309.89,408.1c14.55-.6,29.07-1.75,43.62-2.28q43-.29,86-.05c12.45-.18,24.87.9,37.3,1.54,9.4.74,19,.38,28.13,3.09-6.91,3.49-14.78,2.38-22.21,3.25-9.76,1-19.59.35-29.35,1.23-11.45,1-23-.08-34.42.79a315.59,315.59,0,0,1-40.45-.2c-10.28-.51-20.6.32-30.87-.6-9.45-.88-19-.2-28.42-1.19-7.46-.86-15.22.05-22.33-2.84A40.33,40.33,0,0,1,309.89,408.1Z" transform="translate(-39.84 -55.53)"/>
</svg>
