<?xml version="1.0" encoding="UTF-8" ?>
<!DOCTYPE svg PUBLIC "-//W3C//DTD SVG 1.1//EN" "http://www.w3.org/Graphics/SVG/1.1/DTD/svg11.dtd">
<svg width="980pt" height="980pt" viewBox="0 0 980 980" version="1.1" xmlns="http://www.w3.org/2000/svg">
<g id="#ffffffff">
</g>
<g id="#5d35b0ff">
<path fill="#5d35b0" opacity="1.00" d=" M 464.91 0.00 L 516.12 0.00 C 520.36 1.02 524.74 1.16 529.07 1.49 C 610.17 7.77 689.59 34.80 757.59 79.45 C 820.24 120.13 873.15 175.52 911.36 239.66 C 947.10 299.60 969.71 367.27 977.20 436.65 C 978.41 445.42 978.17 454.37 980.00 463.06 L 980.00 511.34 C 978.54 525.21 978.04 539.17 976.05 552.99 C 965.54 635.99 933.10 716.06 882.93 783.00 C 837.25 844.20 777.14 894.46 709.17 929.20 C 657.11 955.70 599.87 971.33 541.87 977.49 C 534.25 978.49 526.49 978.40 518.95 980.00 L 461.63 980.00 C 444.75 978.54 427.81 977.37 411.05 974.70 C 375.69 969.29 340.95 959.76 307.82 946.25 C 277.16 933.77 247.99 917.84 220.44 899.54 C 157.83 858.36 104.91 802.60 67.00 737.96 C 30.24 675.50 7.68 604.75 1.64 532.52 C 1.23 527.98 1.08 523.40 0.00 518.96 L 0.00 464.69 C 1.02 458.90 1.07 453.00 1.65 447.16 C 9.39 355.61 43.85 266.59 99.60 193.57 C 137.72 143.49 185.48 100.72 239.63 68.61 C 304.78 29.66 379.21 6.40 454.93 1.19 C 458.27 0.99 461.62 0.71 464.91 0.00 M 332.61 66.59 C 271.76 89.18 215.90 125.10 170.18 171.18 C 118.20 222.99 79.30 287.79 57.91 357.99 C 38.56 421.14 33.54 488.57 42.78 553.94 C 54.31 636.30 89.34 715.27 142.83 778.97 C 159.59 746.76 180.05 716.36 204.67 689.61 C 229.05 662.92 257.42 639.91 288.55 621.54 C 322.33 601.52 359.20 586.95 397.17 577.11 C 418.68 571.16 440.94 568.89 462.98 565.88 C 464.57 565.66 466.16 565.29 467.63 564.60 C 445.11 561.21 422.92 554.90 402.58 544.56 C 371.30 528.97 344.44 504.74 325.73 475.23 C 300.35 435.73 289.87 386.80 297.55 340.43 C 303.08 305.24 318.44 271.65 341.51 244.50 C 361.28 221.14 386.67 202.58 414.97 190.91 C 475.98 165.45 549.91 173.53 603.44 212.56 C 634.04 234.40 657.84 265.52 671.24 300.64 C 687.71 343.43 688.71 392.10 673.34 435.36 C 662.78 465.38 644.82 492.79 621.39 514.34 C 591.59 542.16 552.89 559.81 512.64 565.56 C 519.86 567.42 527.41 567.39 534.76 568.57 C 578.98 573.48 622.49 585.76 662.29 605.76 C 692.08 620.55 719.74 639.44 744.95 661.10 C 783.03 693.83 814.41 734.20 837.05 779.01 C 899.75 704.22 937.00 608.51 941.05 510.98 C 944.25 444.09 932.40 376.46 906.26 314.79 C 876.35 243.36 827.42 180.14 766.20 132.80 C 700.64 81.78 620.64 49.53 537.99 40.97 C 468.78 33.63 397.85 42.25 332.61 66.59 Z" />
</g>
</svg>
